PathFileType	4	(X/Y/Z)	/Users/niels/Desktop/University/Third Semester/Perception and Action/Exam/Gymnastics Motion Tracking/Code for Gym Tracking/Analyzed Data/Backflip/id1_1_baseline_Sports2D/id1_1_baseline_Sports2D_px_person00.trc
DataRate	CameraRate	NumFrames	NumMarkers	Units	OrigDataRate	OrigDataStartFrame	OrigNumFrames
60.02098635886674	60.02098635886674	7	22	m	60.02098635886674	251	287
Frame#	Time	Hip			RHip			RKnee			RAnkle			RBigToe			RSmallToe			RHeel			LHip			LKnee			LAnkle			LBigToe			LSmallToe			LHeel			Neck			Head			Nose			RShoulder			RElbow			RWrist			LShoulder			LElbow			LWrist		
		X1	Y1	Z1	X2	Y2	Z2	X3	Y3	Z3	X4	Y4	Z4	X5	Y5	Z5	X6	Y6	Z6	X7	Y7	Z7	X8	Y8	Z8	X9	Y9	Z9	X10	Y10	Z10	X11	Y11	Z11	X12	Y12	Z12	X13	Y13	Z13	X14	Y14	Z14	X15	Y15	Z15	X16	Y16	Z16	X17	Y17	Z17	X18	Y18	Z18	X19	Y19	Z19	X20	Y20	Z20	X21	Y21	Z21	X22	Y22	Z22
251	4.1818706293706285	0.9685762402796577	-0.3845862001043182	0.0	0.9669814960993539	-0.38551594392102734	0.0	0.9147466495360754	-0.4766825764557228	0.0	0.8411095398500764	-0.5225269195726049	0.0	0.8363950768681891	-0.5678480287922509	0.0	0.8317482783890222	-0.5605056550290403	0.0	0.8253242294539637	-0.522874033126746	0.0	0.9679480074986291	-0.3877854685222683	0.0	0.9161260545978263	-0.4763751774926437	0.0	0.8440040504744727	-0.5201349069926422	0.0	0.8419238312972706	-0.562731967958171	0.0	0.8436715195727398	-0.5579451140318207	0.0	0.8284791106562148	-0.5202520469212806	0.0	1.0962940412270061	-0.4225903213471742	0.0	1.155145406132586	-0.4484853235036757	0.0	1.1188791368683246	-0.46105985292372814	0.0	1.0809958818957013	-0.41544388548833483	0.0	1.0296607639545334	-0.4564043778702562	0.0	1.0193498291728909	-0.5110015465415139	0.0	1.0832410215640171	-0.41778242872344873	0.0	1.0368170419218605	-0.4653587046439495	0.0	1.0249181091675792	-0.5111196829376792	0.0
252	4.198531468531468	0.9640351186971755	-0.3959646160022133	0.0	0.9627583869180784	-0.39716364635559503	0.0	0.9147682991430589	-0.4899172798599273	0.0	0.8468771792139865	-0.5477650710411648	0.0	0.8487608540949102	-0.5948528306100135	0.0	0.8436381610919834	-0.5879166323801883	0.0	0.8308832580349647	-0.5510044816206254	0.0	0.9634660691551997	-0.3985161892505264	0.0	0.9153256651598385	-0.4894016854913313	0.0	0.8493852843119712	-0.5452686382103531	0.0	0.8537875557247663	-0.5893874849872581	0.0	0.8545996001320084	-0.5845426217388056	0.0	0.8332122235067909	-0.5483114065791518	0.0	1.09581408931099	-0.4205841056110612	0.0	1.157130581738578	-0.4437558027868519	0.0	1.1212194897832546	-0.4578074592108946	0.0	1.0811614130121678	-0.4150810437847992	0.0	1.0381367125119074	-0.46403069556727733	0.0	1.0368262814624272	-0.519402137831618	0.0	1.0824951804909106	-0.4159952909110005	0.0	1.0445430062427168	-0.4704816266006442	0.0	1.0408960652059336	-0.5182439205895321	0.0
253	4.215192307692307	0.9598022298442683	-0.40827549394545726	0.0	0.958887386275241	-0.409681886884322	0.0	0.915252019545462	-0.5038479166129973	0.0	0.8539966065502521	-0.5723586587700491	0.0	0.8621838809315815	-0.6201344426074468	0.0	0.8567537351157107	-0.6135633331725865	0.0	0.8380985064964541	-0.5784236219412009	0.0	0.9593463499740252	-0.4101687180027023	0.0	0.9151218970466538	-0.5031809394205401	0.0	0.856131836708171	-0.56986780564284	0.0	0.8667308855023328	-0.6144081567844577	0.0	0.8665271591878465	-0.609639061503473	0.0	0.8395931219044626	-0.57568498972341	0.0	1.0939768138899484	-0.4195043139016959	0.0	1.1573734278658123	-0.4403000732351529	0.0	1.1219425052514171	-0.4553261186520198	0.0	1.0802621536811048	-0.4157169549555338	0.0	1.0469563404495066	-0.4708517806806174	0.0	1.0546803256144983	-0.525457648811248	0.0	1.080709455769842	-0.41507565758841475	0.0	1.0523853803151235	-0.47502428712960765	0.0	1.057207238844175	-0.5232694806200138	0.0
254	4.231853146853146	0.9559165258013714	-0.4214766694605699	0.0	0.9554050766917697	-0.42301608186842515	0.0	0.916254722106103	-0.518476520333961	0.0	0.8620577787689646	-0.5961489293914103	0.0	0.8760387520364055	-0.6435931403300056	0.0	0.8704712778171708	-0.6372881340954919	0.0	0.8465097561244768	-0.6048742504427409	0.0	0.9556336832283868	-0.4227363531565107	0.0	0.9155878367867838	-0.5177116199238936	0.0	0.8638668491666935	-0.59373407079364	0.0	0.8801811099296131	-0.6376813381752041	0.0	0.8789025316189185	-0.63309250797947	0.0	0.8472286723140322	-0.6020743211844307	0.0	1.090907743650119	-0.4195060445046539	0.0	1.156089833576645	-0.4382035993998926	0.0	1.12123246686987	-0.45375901132681024	0.0	1.078361853865201	-0.4174468687486657	0.0	1.0557883283656584	-0.4767825473340136	0.0	1.0723407648432894	-0.529081149586687	0.0	1.0779846243643068	-0.41521810862715286	0.0	1.0601341843232726	-0.4789681474457486	0.0	1.0733648416051969	-0.5261199723145267	0.0
255	4.248513986013985	0.952431679383495	-0.4355194448918719	0.0	0.9523493632900497	-0.4371195491032428	0.0	0.9177821921777577	-0.5337828273382472	0.0	0.870667262993856	-0.6190147583377272	0.0	0.8897861620553136	-0.665157949895813	0.0	0.884257123239068	-0.6589809604509917	0.0	0.8556746835006355	-0.63011672183669	0.0	0.9523754272313621	-0.4362087739476327	0.0	0.9167365949892421	-0.532962839387252	0.0	0.872218953218985	-0.6167092390122021	0.0	0.8936273393161477	-0.659156682669262	0.0	0.8912295642163433	-0.6548147346968798	0.0	0.8557308130618784	-0.6272236456085595	0.0	1.0867547335940784	-0.42071105065429315	0.0	1.153480434801563	-0.4374792924067518	0.0	1.1192827708647912	-0.4532052804890637	0.0	1.0755508129194011	-0.4203198909737508	0.0	1.0642935198079564	-0.4817748144847656	0.0	1.0892213239422819	-0.5302938803737789	0.0	1.074441611895918	-0.4165994512000761	0.0	1.0675506623693365	-0.48231234640169035	0.0	1.0888501354247553	-0.5268213446876889	0.0
256	4.2651748251748245	0.9494031893183171	-0.4503512154428391	0.0	0.9497465713862245	-0.45195241475533543	0.0	0.9197833052790391	-0.5497221207541971	0.0	0.879471157099615	-0.6408564799798165	0.0	0.9030088485381239	-0.6847433502809646	0.0	0.8976983703471986	-0.6785505092488961	0.0	0.8652051533970985	-0.6539043316208568	0.0	0.9496143829152904	-0.45056724332487524	0.0	0.9185206457044424	-0.5488748257073466	0.0	0.8808471586537545	-0.6386675704159364	0.0	0.9066616512803805	-0.6788137430084352	0.0	0.9031038656705425	-0.6747395080454088	0.0	0.8647494526361967	-0.6508976513789524	0.0	1.081684010621339	-0.4232068140643027	0.0	1.1497152461385003	-0.4380658449841527	0.0	1.1162892796761106	-0.4537268691557037	0.0	1.0719341402991758	-0.4243424418026545	0.0	1.0721400585779841	-0.48581814472683044	0.0	1.104741234610982	-0.5292252179785624	0.0	1.0702171931828828	-0.41935018433128063	0.0	1.0743785595230957	-0.4850815959847197	0.0	1.1031348866046	-0.5255067204407569	0.0
257	4.281835664335664	0.9468778080972545	-0.46591472840032133	0.0	0.9476038072101235	-0.4674691561526677	0.0	0.9221608165040618	-0.5662157503356892	0.0	0.888173061463841	-0.6615769054220663	0.0	0.9154298761532028	-0.7022061590439219	0.0	0.9105195314090098	-0.6958946479263853	0.0	0.8747927539006616	-0.6759569651612932	0.0	0.9473883148880174	-0.46577240221919874	0.0	0.9208450814720165	-0.5653568691775612	0.0	0.8894593792086835	-0.6594991261296639	0.0	0.9189966406423927	-0.6966147204996771	0.0	0.9142302411243383	-0.69278308521613	0.0	0.8739974673988483	-0.6728436150132882	0.0	1.075876442988804	-0.4270419277343406	0.0	1.1449276324819444	-0.43984310681339334	0.0	1.112436525235002	-0.4553464329604698	0.0	1.067616104531008	-0.42948293589959513	0.0	1.0790127787034465	-0.4889398475850618	0.0	1.1183541302155238	-0.5261074571254231	0.0	1.0654562224207211	-0.42353736391787083	0.0	1.0803598231591884	-0.487328483923401	0.0	1.1157158170454062	-0.5224149872467893	0.0
